<svg width="128" height="128" fill="none" xmlns="http://www.w3.org/2000/svg">
  <style>
    path { fill: #000000; }
    @media (prefers-color-scheme: dark) {
      path { fill: #ffffff; }
    }
  </style>
  <!-- <path fill="#fff" d="M0 0h128v128H0z"/> -->
  <path fill-rule="evenodd" clip-rule="evenodd" d="M42.846 48.857l.01-.056a.717.717 0 00.015-.14c-.006.066-.014.131-.025.196" fill="#020303"/>
  <mask id="a" maskUnits="userSpaceOnUse" x="8" y="26" width="112" height="76">
    <path d="M8 26h112v75.66H8V26z" fill="#fff"/>
  </mask>
  <g mask="url(#a)">
    <path fill-rule="evenodd" clip-rule="evenodd" d="M114.852 73.684c-.788 4.524-5.599 7.58-9.076 7.926.15-.318.267-.654.351-1.004a5.301 5.301 0 00-3.823-6.351c.827-15.582.995-33.212-3.169-42.17 3.01 1.172 5.632 3.079 7.839 5.7 8.93 10.629 8.902 30.029 7.878 35.899zm-76.6 6.435l4.085-27.798.043-.271.148.075 50.905 26.088-55.18 1.906zm4.618-31.458a.655.655 0 01-.014.14l-.01.057c.01-.066.019-.131.024-.197zm-.052-.733a1.96 1.96 0 01-.014-.047c.01.019.01.033.014.047zm.538-1.757a7.63 7.63 0 01.196-.262c5.884-7.426 36.758-15.236 47.652-15.236.524 0 1.323.112 2.225 1.065 6.043 6.398 4.725 33.16 4.15 43.348l.177.089c-.065.046-.126.098-.19.15l.013-.24L43.823 47.54l-.938-.486a3.55 3.55 0 01.47-.883zm-5.945 7.533l-5.818 39.571L13.678 68.39l23.228-14.833.58-.37-.075.518zm73.137-18.923C105.65 28.953 99.14 26 91.204 26c-10.67 0-43.82 7.542-51.316 17.006-.089.117-.178.23-.262.342a5.289 5.289 0 00-6.155 3.973 5.289 5.289 0 00.103 2.823L9.08 65.782a2.336 2.336 0 00-.64 3.336l22.732 31.57a2.338 2.338 0 001.897.972c.182 0 .37-.022.552-.07a2.324 2.324 0 001.757-1.93L37.56 84.82l59.341-2.052a5.271 5.271 0 002.847 1.762c.056.014.112.028.168.038 1.07.911 2.458 1.495 4.108 1.682.379.042.757.066 1.149.066 5.889 0 13.063-4.828 14.283-11.834 1.318-7.553.902-28.036-8.908-39.701v-.001z" fill="#020303"/>
  </g>
  <path fill-rule="evenodd" clip-rule="evenodd" d="M42.86 48.157a2.27 2.27 0 00-.056-.277c.01.019.01.033.014.048.019.074.033.154.042.229zm.01.504a.718.718 0 01-.014.14l-.01.057c.01-.066.019-.131.024-.197zm54.886 26.514c-.065.046-.126.098-.19.15l.013-.24.177.089zM53.993 63.92a2.65 2.65 0 01-3.188 1.963 2.65 2.65 0 01-1.962-3.188 2.65 2.65 0 013.187-1.963 2.65 2.65 0 011.963 3.188zm30.286-25.277a2.645 2.645 0 11-5.15-1.223 2.646 2.646 0 115.15 1.223zM37.486 53.185l-.075.518c-.005-.004-.01-.004-.013-.004a5.342 5.342 0 01-.49-.144l.578-.37zm5.043-1.06c-.061.065-.127.134-.192.196l.043-.271.148.075z" fill="#020303"/>
  <path fill-rule="evenodd" clip-rule="evenodd" d="M42.86 48.157a2.27 2.27 0 00-.056-.277c.01.019.01.033.014.048.019.074.033.154.042.229zm.01.504a.71.71 0 01-.014.14l-.01.057c.01-.066.02-.131.024-.197zm.953-1.121l-.94-.486c.085-.243.229-.538.473-.884.22.43.374.892.467 1.37z" fill="#020303"/>
  <path fill-rule="evenodd" clip-rule="evenodd" d="M42.818 47.928c-.004-.014-.004-.028-.014-.047a2.394 2.394 0 01.014.047zm54.76 27.157l-.012.24c.064-.052.125-.104.19-.15l-.177-.09z" fill="#020303"/>
</svg>